<?xml version="1.0" standalone="no"?>
<!DOCTYPE svg PUBLIC "-//W3C//DTD SVG 20010904//EN"
 "http://www.w3.org/TR/2001/REC-SVG-20010904/DTD/svg10.dtd">
<svg version="1.0" xmlns="http://www.w3.org/2000/svg"
 width="780.000000pt" height="780.000000pt" viewBox="0 0 780.000000 780.000000"
 preserveAspectRatio="xMidYMid meet">
<metadata>
Created by potrace 1.11, written by Peter Selinger 2001-2013
</metadata>
<g transform="translate(0.000000,780.000000) scale(0.100000,-0.100000)"
fill="#000000" stroke="none">
<path d="M0 3900 l0 -3900 3900 0 3900 0 0 3900 0 3900 -3900 0 -3900 0 0
-3900z m2505 1421 c53 -25 319 -294 340 -343 19 -47 19 -89 0 -136 -11 -25
-158 -179 -468 -489 l-452 -453 452 -452 c310 -311 457 -465 468 -490 39 -95
17 -140 -158 -317 -179 -180 -228 -206 -325 -166 -51 22 -1326 1294 -1353
1350 -10 22 -19 56 -19 75 0 19 9 53 19 75 25 53 1301 1328 1351 1349 47 20
97 19 145 -3z m1933 4 c25 -11 179 -157 489 -468 l453 -452 452 452 c309 308
465 457 490 467 49 21 94 20 143 -3 48 -23 329 -303 345 -344 13 -36 13 -98 0
-134 -6 -15 -217 -234 -468 -485 l-457 -458 457 -457 c251 -252 462 -471 468
-486 13 -36 13 -98 0 -134 -16 -41 -297 -321 -345 -344 -49 -23 -94 -24 -143
-3 -25 10 -181 159 -490 467 l-452 452 -453 -452 c-310 -311 -464 -457 -489
-468 -97 -40 -146 -14 -330 173 -170 172 -184 199 -157 297 9 34 80 109 467
498 l457 457 -457 458 c-387 388 -458 463 -467 497 -27 98 -13 125 157 297
184 187 233 213 330 173z"/>
</g>
</svg>
