<?xml version="1.0" standalone="no"?>
<!DOCTYPE svg PUBLIC "-//W3C//DTD SVG 20010904//EN"
 "http://www.w3.org/TR/2001/REC-SVG-20010904/DTD/svg10.dtd">
<svg version="1.0" xmlns="http://www.w3.org/2000/svg"
 width="700.000000pt" height="700.000000pt" viewBox="0 0 700.000000 700.000000"
 preserveAspectRatio="xMidYMid meet">
<metadata>
Created by potrace 1.11, written by Peter Selinger 2001-2013
</metadata>
<g transform="translate(0.000000,700.000000) scale(0.100000,-0.100000)"
fill="#000000" stroke="none">
<path d="M146 6965 c-52 -18 -84 -45 -121 -100 -20 -30 -20 -53 -23 -3361 -1
-2330 1 -3340 9 -3361 5 -17 26 -49 45 -72 67 -78 -250 -71 3447 -71 2422 0
3314 3 3324 11 7 6 13 8 13 5 0 -20 93 61 113 97 l22 42 0 3330 0 3331 -25 49
c-18 35 -40 57 -75 79 l-50 31 -3321 1 c-2632 1 -3329 -1 -3358 -11z m1584
-4435 c49 -14 257 -225 262 -266 9 -74 0 -86 -244 -331 -128 -129 -235 -236
-237 -238 -2 -2 98 -106 223 -230 124 -124 233 -236 241 -249 21 -31 22 -99 3
-129 -17 -25 -144 -154 -202 -204 -41 -37 -96 -44 -144 -19 -33 18 -755 742
-771 773 -16 32 -13 90 6 120 10 15 184 192 387 395 342 342 383 378 436 387
3 1 21 -4 40 -9z"/>
</g>
</svg>
