<?xml version="1.0" encoding="UTF-8" standalone="no"?>
<svg width="181px" height="22px" viewBox="0 0 181 22" version="1.1" xmlns="http://www.w3.org/2000/svg" xmlns:xlink="http://www.w3.org/1999/xlink" xmlns:sketch="http://www.bohemiancoding.com/sketch/ns">
    <!-- Generator: Sketch 3.4.4 (17249) - http://www.bohemiancoding.com/sketch -->
    <title>Slice 1</title>
    <desc>Created with Sketch.</desc>
    <defs></defs>
    <g id="Page-1" stroke="none" stroke-width="1" fill="none" fill-rule="evenodd" sketch:type="MSPage">
        <g id="Logo" sketch:type="MSLayerGroup" transform="translate(0.000000, 1.000000)" fill="#4FE399">
            <path d="M5.7694,8.4616 L3.0774,8.4616 L3.0774,3.0766 L6.5384,3.0766 L6.5384,3.0766 C8.0234,3.0766 9.2314,4.2846 9.2314,5.7696 C9.2314,7.2536 8.0234,8.4616 6.5384,8.4616 L5.7694,8.4616 Z M6.5384,11.5386 C8.0234,11.5386 9.2314,12.7466 9.2314,14.2306 C9.2314,15.7156 8.0234,16.9236 6.5384,16.9236 L3.0774,16.9236 L3.0774,11.5386 L5.7694,11.5386 L6.5384,11.5386 L6.5384,11.5386 Z M12.3074,5.7696 L12.3074,5.7696 C12.3074,2.5826 9.7244,-0.0004 6.5384,-0.0004 L3.0774,-0.0004 L2.0774,-0.0004 L0.7694,-0.0004 C0.3444,-0.0004 0.0004,0.3446 0.0004,0.7696 L0.0004,19.2306 C0.0004,19.6556 0.3444,19.9996 0.7694,19.9996 L1.7504,19.9996 L1.7504,19.9996 L6.5384,19.9996 C9.7244,19.9996 12.3074,17.4166 12.3074,14.2306 C12.3074,12.5586 11.5954,11.0536 10.4594,9.9996 C11.5954,8.9466 12.3074,7.4416 12.3074,5.7696 L12.3074,5.7696 Z" id="Fill-1" sketch:type="MSShapeGroup"></path>
            <path d="M26.154,13.8461 L24.522,13.8461 L26.154,7.0091 L27.786,13.8461 L26.154,13.8461 Z M32.294,19.0581 L27.887,0.5961 C27.804,0.2471 27.483,0.0001 27.112,0.0001 L26.154,0.0001 L25.196,0.0001 C24.825,0.0001 24.504,0.2471 24.421,0.5961 L20.014,19.0581 C19.899,19.5401 20.278,20.0001 20.789,20.0001 L22.339,20.0001 C22.709,20.0001 23.031,19.7531 23.114,19.4041 L23.706,16.9231 L26.154,16.9231 L28.602,16.9231 L29.194,19.4041 C29.277,19.7531 29.599,20.0001 29.969,20.0001 L31.519,20.0001 C32.03,20.0001 32.409,19.5401 32.294,19.0581 L32.294,19.0581 Z" id="Fill-3" sketch:type="MSShapeGroup"></path>
            <path d="M53.8433,14.4053 C53.8433,14.0963 53.5933,13.8463 53.2843,13.8463 L51.3253,13.8463 C51.0163,13.8463 50.7663,14.0963 50.7663,14.4053 L50.7663,14.4113 L50.7623,14.4113 C50.6693,15.8113 49.5033,16.9233 48.0793,16.9233 L47.3103,16.9233 C45.8253,16.9233 44.6183,15.7153 44.6183,14.2303 L44.6183,5.7693 C44.6183,4.2843 45.8253,3.0773 47.3103,3.0773 L48.0793,3.0773 C49.5033,3.0773 50.6693,4.1883 50.7623,5.5893 L50.7663,5.5893 L50.7663,5.5943 C50.7663,5.9033 51.0163,6.1543 51.3253,6.1543 L53.2843,6.1543 C53.5933,6.1543 53.8433,5.9033 53.8433,5.5943 L53.8433,5.5893 L53.8443,5.5893 C53.7483,2.4863 51.2053,0.0003 48.0793,0.0003 L47.3103,0.0003 C44.1243,0.0003 41.5413,2.5833 41.5413,5.7693 L41.5413,14.2303 C41.5413,17.4173 44.1243,20.0003 47.3103,20.0003 L48.0793,20.0003 C51.2053,20.0003 53.7483,17.5133 53.8443,14.4113 L53.8433,14.4113 L53.8433,14.4053 Z" id="Fill-5" sketch:type="MSShapeGroup"></path>
            <path d="M68.7462,10 L73.7582,1.124 C74.0252,0.612 73.6532,0 73.0762,0 L71.3412,0 C71.0542,0 70.7912,0.16 70.6582,0.414 L66.1582,8.462 L64.6152,8.462 L64.6152,3.639 L64.6152,3.485 L64.6152,3.077 L64.6152,0.769 C64.6152,0.344 64.2712,0 63.8462,0 L62.3072,0 C61.8832,0 61.5382,0.344 61.5382,0.769 L61.5382,19.231 C61.5382,19.656 61.8832,20 62.3072,20 L63.8462,20 C64.2712,20 64.6152,19.656 64.6152,19.231 L64.6152,11.538 L64.6152,11.507 L66.1632,11.507 L70.6582,19.586 C70.7912,19.84 71.0542,20 71.3412,20 L73.0762,20 C73.6532,20 74.0252,19.388 73.7582,18.876 L68.7462,10 Z" id="Fill-7" sketch:type="MSShapeGroup"></path>
            <path d="M86.8315,3.1259 C86.8295,3.1259 86.8265,3.1269 86.8245,3.1269 L86.8315,3.1259 Z" id="Fill-9" sketch:type="MSShapeGroup"></path>
            <path d="M87.6923,2.1959 L87.6923,0.6459 L87.6923,0.6459 L87.6923,2.1959 L87.6923,2.1959 Z" id="Fill-11" sketch:type="MSShapeGroup"></path>
            <path d="M86.9729,0.0136 C86.9859,0.0126 86.9979,0.0116 87.0109,0.0106 C86.9979,0.0106 86.9859,0.0126 86.9729,0.0136" id="Fill-13" sketch:type="MSShapeGroup"></path>
            <path d="M88.077,8.4554 L88.077,8.4554 L88.077,8.4554 L88.077,8.4554 L87.308,8.4554 L87.308,8.4554 C85.838,8.4554 84.64,7.2724 84.616,5.8084 C84.594,4.4924 85.572,3.3844 86.825,3.1274 C86.827,3.1264 86.829,3.1264 86.832,3.1264 L86.923,3.1084 C87.348,3.0294 87.692,2.6204 87.692,2.1964 L87.692,0.6454 C87.692,0.2674 87.419,0.0054 87.059,0.0084 L87.059,0.0064 C87.043,0.0074 87.027,0.0094 87.01,0.0104 C87.027,0.0094 87.043,0.0084 87.059,0.0084 C87.015,0.0084 86.97,0.0114 86.923,0.0204 C86.94,0.0174 86.956,0.0154 86.973,0.0134 C83.941,0.2444 81.481,2.7924 81.54,5.8754 C81.6,9.0094 84.159,11.5324 87.308,11.5324 L88.077,11.5324 L88.077,11.5324 C89.841,11.5324 91.214,13.2374 90.635,15.0854 C90.289,16.1894 89.234,16.9174 88.077,16.9174 L88.077,16.9174 L88.077,16.9164 L87.305,16.9164 C85.882,16.9164 84.716,15.8054 84.622,14.4044 L84.618,14.4044 L84.618,14.3994 C84.618,14.0904 84.368,13.8404 84.059,13.8404 L82.101,13.8404 C81.792,13.8404 81.542,14.0904 81.542,14.3994 L81.542,14.4044 L81.541,14.4044 C81.636,17.5074 84.18,19.9934 87.306,19.9934 L87.963,19.9934 C91.198,19.9934 93.907,17.3464 93.845,14.1124 C93.785,10.9774 91.226,8.4554 88.077,8.4554" id="Fill-15" sketch:type="MSShapeGroup"></path>
            <path d="M109.6154,8.4677 L109.6154,8.4677 L106.1534,8.4677 L106.1534,3.0827 L109.6154,3.0827 C111.1004,3.0827 112.3074,4.2907 112.3074,5.7757 C112.3074,7.2597 111.1004,8.4677 109.6154,8.4677 M109.5014,0.0057 L106.1534,0.0057 L103.8464,0.0057 C103.4214,0.0057 103.0774,0.3507 103.0774,0.7757 L103.0774,10.7757 C103.0774,11.1997 103.4214,11.5447 103.8464,11.5447 L106.1534,11.5447 L108.3874,11.5447 L109.6154,11.5447 C112.7644,11.5447 115.3234,9.0217 115.3834,5.8877 C115.4454,2.6537 112.7364,0.0057 109.5014,0.0057" id="Fill-17" sketch:type="MSShapeGroup"></path>
            <path d="M136.909,19.0578 L136.399,16.9228 L135.806,14.4368 C135.723,14.0908 135.414,13.8458 135.058,13.8458 L132.401,13.8458 L130.769,13.8458 L129.137,13.8458 L130.388,8.6048 L131.343,4.6038 L131.343,4.6038 L132.216,0.9478 C132.331,0.4648 131.965,-0.0002 131.468,-0.0002 L129.811,-0.0002 C129.44,-0.0002 129.119,0.2468 129.036,0.5958 L124.629,19.0578 C124.514,19.5398 124.893,19.9998 125.405,19.9998 L126.954,19.9998 C127.324,19.9998 127.646,19.7528 127.729,19.4038 L128.403,16.9228 L130.769,16.9228 L133.217,16.9228 L133.809,19.4038 C133.893,19.7528 134.214,19.9998 134.584,19.9998 L136.134,19.9998 C136.645,19.9998 137.024,19.5398 136.909,19.0578" id="Fill-19" sketch:type="MSShapeGroup"></path>
            <path d="M152.6944,0 L151.8674,0 C148.7134,0 146.1564,2.557 146.1564,5.712 L146.1564,10.769 C146.1564,11.194 146.5004,11.538 146.9254,11.538 L148.4634,11.538 C148.8884,11.538 149.2334,11.194 149.2334,10.769 L149.2334,5.769 C149.2334,4.285 150.4404,3.077 151.9254,3.077 L151.9254,3.077 L152.6944,3.077 C154.1184,3.077 155.2844,4.189 155.3774,5.589 L155.3814,5.589 L155.3814,5.595 C155.3814,5.903 155.6314,6.154 155.9404,6.154 L157.8994,6.154 C158.2084,6.154 158.4584,5.903 158.4584,5.595 L158.4584,5.589 L158.4594,5.589 C158.3634,2.486 155.8204,0 152.6944,0" id="Fill-21" sketch:type="MSShapeGroup"></path>
            <path d="M158.4584,14.4109 L158.4584,14.4049 C158.4584,14.0969 158.2084,13.8459 157.8994,13.8459 L155.9404,13.8459 C155.6314,13.8459 155.3814,14.0969 155.3814,14.4049 L155.3814,14.4109 L155.3774,14.4109 C155.2844,15.8109 154.1184,16.9229 152.6944,16.9229 L151.9204,16.9229 C150.4974,16.9229 149.3304,15.8109 149.2374,14.4109 L149.2334,14.4109 L149.2334,14.4049 C149.2334,14.0969 148.9834,13.8459 148.6744,13.8459 L146.7154,13.8459 C146.4074,13.8459 146.1564,14.0969 146.1564,14.4049 L146.1564,14.4109 L146.1564,14.4109 C146.2514,17.5139 148.7944,19.9999 151.9204,19.9999 L152.6944,19.9999 C155.8204,19.9999 158.3634,17.5139 158.4594,14.4109 L158.4584,14.4109 Z" id="Fill-23" sketch:type="MSShapeGroup"></path>
            <path d="M167.6921,19.2307 C167.6921,19.6557 168.0361,19.9997 168.4611,19.9997 L170.7691,19.9997 L179.2301,19.9997 C179.6551,19.9997 180.0001,19.6557 180.0001,19.2307 L180.0001,17.6927 C180.0001,17.2677 179.6551,16.9227 179.2301,16.9227 L173.8461,16.9227 L170.7691,16.9227 L168.4611,16.9227 C168.0361,16.9227 167.6921,17.2677 167.6921,17.6927 L167.6921,19.2307 Z" id="Fill-25" sketch:type="MSShapeGroup"></path>
            <path d="M179.2306,0 L170.7686,0 L168.4616,0 C168.0366,0 167.6926,0.344 167.6926,0.769 L167.6926,2.308 C167.6926,2.733 168.0366,3.077 168.4616,3.077 L170.7686,3.077 L174.5416,3.077 L179.2306,3.077 C179.6556,3.077 179.9996,2.733 179.9996,2.308 L179.9996,0.769 C179.9996,0.344 179.6556,0 179.2306,0" id="Fill-27" sketch:type="MSShapeGroup"></path>
        </g>
    </g>
</svg>