<?xml version="1.0" encoding="UTF-8" standalone="no"?>
<svg width="10px" height="20px" viewBox="0 0 10 20" version="1.1" xmlns="http://www.w3.org/2000/svg" xmlns:xlink="http://www.w3.org/1999/xlink">
    <!-- Generator: Sketch 41.1 (35376) - http://www.bohemiancoding.com/sketch -->
    <title>Arrow</title>
    <desc>Created with Sketch.</desc>
    <defs></defs>
    <g id="Home" stroke="none" stroke-width="1" fill="none" fill-rule="evenodd">
        <g id="320" transform="translate(-292.000000, -1351.000000)" fill="#CED3DB">
            <g id="Viewport-3" transform="translate(0.000000, 1136.000000)">
                <g id="List" transform="translate(0.000000, 154.000000)">
                    <g id="Item-1" transform="translate(0.000000, 46.000000)">
                        <path d="M302,25 C302,24.865 301.9455,24.744 301.859,24.6545 L301.8605,24.6535 L292.8605,15.1535 L292.859,15.1545 C292.768,15.06 292.6415,15 292.5,15 C292.2235,15 292,15.2235 292,15.5 C292,15.635 292.0545,15.756 292.141,15.8455 L292.1395,15.8465 L300.8115,25 L292.1395,34.153 L292.141,34.1545 C292.0545,34.244 292,34.365 292,34.5 C292,34.776 292.2235,35 292.5,35 C292.6415,35 292.768,34.94 292.859,34.8455 L292.8605,34.8465 L301.8605,25.3465 L301.859,25.3455 C301.9455,25.256 302,25.135 302,25 L302,25 Z" id="Arrow"></path>
                    </g>
                </g>
            </g>
        </g>
    </g>
</svg>