<?xml version="1.0" encoding="UTF-8" standalone="no"?>
<svg width="16px" height="16px" viewBox="0 0 16 16" version="1.1" xmlns="http://www.w3.org/2000/svg" xmlns:xlink="http://www.w3.org/1999/xlink">
    <!-- Generator: Sketch 41.1 (35376) - http://www.bohemiancoding.com/sketch -->
    <title>Close</title>
    <desc>Created with Sketch.</desc>
    <defs></defs>
    <g id="Navigation" stroke="none" stroke-width="1" fill="none" fill-rule="evenodd">
        <g id="375" transform="translate(-18.000000, -22.000000)" fill="#1DE092">
            <g id="Navigation-header">
                <g id="Close" transform="translate(18.000000, 22.000000)">
                    <path d="M10.0174261,8 L15.7122179,2.30520819 C16.0969387,1.92048736 16.0951006,1.30064272 15.7116584,0.917200465 L15.0827995,0.288341607 C14.7037387,-0.0907191796 14.0779251,-0.0953511379 13.6947918,0.287782113 L8,5.98257392 L2.30520819,0.287782113 C1.92048736,-0.096938725 1.30064272,-0.095100644 0.917200465,0.288341607 L0.288341607,0.917200465 C-0.0907191796,1.29626125 -0.0953511379,1.92207494 0.287782113,2.30520819 L5.98257392,8 L0.287782113,13.6947918 C-0.096938725,14.0795126 -0.095100644,14.6993573 0.288341607,15.0827995 L0.917200465,15.7116584 C1.29626125,16.0907192 1.92207494,16.0953511 2.30520819,15.7122179 L8,10.0174261 L13.6947918,15.7122179 C14.0795126,16.0969387 14.6993573,16.0951006 15.0827995,15.7116584 L15.7116584,15.0827995 C16.0907192,14.7037387 16.0953511,14.0779251 15.7122179,13.6947918 L10.0174261,8 L10.0174261,8 Z" id="Icon"></path>
                </g>
            </g>
        </g>
    </g>
</svg>