<?xml version="1.0" encoding="UTF-8" standalone="no"?>
<svg width="23px" height="17px" viewBox="0 0 23 17" version="1.1" xmlns="http://www.w3.org/2000/svg" xmlns:xlink="http://www.w3.org/1999/xlink">
    <!-- Generator: Sketch 41.1 (35376) - http://www.bohemiancoding.com/sketch -->
    <title>Contact</title>
    <desc>Created with Sketch.</desc>
    <defs></defs>
    <g id="Home" stroke="none" stroke-width="1" fill="none" fill-rule="evenodd">
        <g id="320" transform="translate(-279.000000, -21.000000)" fill="#1DE092">
            <g id="Viewport-1">
                <g id="Navigation-header">
                    <g id="Contact" transform="translate(279.000000, 21.000000)">
                        <path d="M21,0 L2,0 C0.897,0 0,0.897 0,2 L0,15 C0,16.103 0.897,17 2,17 L21,17 C22.103,17 23,16.103 23,15 L23,2 C23,0.897 22.103,0 21,0 L21,0 Z M19.5025,2 L13.71,7.793 C13.71,7.793 13.71,7.793 13.7095,7.793 L11.458,10.0445 L9.228,7.8145 L9.228,7.814 C9.2275,7.8135 9.227,7.8135 9.227,7.8135 L3.414,2 L19.5025,2 L19.5025,2 Z M2,3.414 L7.1065,8.521 L2,13.6275 L2,3.414 L2,3.414 Z M3.4555,15 L8.521,9.935 L10.751,12.1655 C10.9385,12.353 11.193,12.4585 11.458,12.4585 C11.7235,12.4585 11.978,12.353 12.1655,12.1655 L14.417,9.914 L19.503,15 L3.4555,15 L3.4555,15 Z M20.9975,13.6665 L15.831,8.5 L20.9995,3.331 L20.9975,13.6665 L20.9975,13.6665 Z" id="Icon"></path>
                    </g>
                </g>
            </g>
        </g>
    </g>
</svg>