<?xml version="1.0" encoding="UTF-8" standalone="no"?>
<svg width="23px" height="23px" viewBox="0 0 23 23" version="1.1" xmlns="http://www.w3.org/2000/svg" xmlns:xlink="http://www.w3.org/1999/xlink">
    <!-- Generator: Sketch 41.1 (35376) - http://www.bohemiancoding.com/sketch -->
    <title>Icon</title>
    <desc>Created with Sketch.</desc>
    <defs></defs>
    <g id="Home" stroke="none" stroke-width="1" fill="none" fill-rule="evenodd">
        <g id="320" transform="translate(-279.000000, -18.000000)" fill="#1DE092">
            <g id="Viewport-1">
                <g id="Navigation-header">
                    <g id="Contact" transform="translate(279.000000, 18.000000)">
                        <path d="M22.4890101,17.7195 L18.3701465,14.519 C18.0542337,14.2735 17.672339,14.1475 17.2864455,14.1475 L17.2859456,14.1475 C17.0325156,14.1475 16.7775859,14.2015 16.5396515,14.313 L14.6896619,15.1755 C14.5701949,15.2315 14.4422302,15.259 14.3152652,15.259 C14.1233182,15.259 13.9323709,15.196 13.7754142,15.0735 C13.181578,14.6105 12.0323951,13.6675 10.677269,12.313 C9.32214283,10.9595 8.37790335,9.8105 7.91503105,9.2175 C7.71158718,8.9565 7.6730978,8.604 7.81305919,8.304 L8.67682088,6.4555 C8.95724351,5.8555 8.87676571,5.1495 8.47037783,4.6265 L5.2667617,0.5115 C5.00583369,0.176 4.6154414,0 4.22055035,0 C3.95162455,0 3.67969957,0.0815 3.44576411,0.25 C2.13962447,1.1895 0.314627986,2.468 0.0846914248,3.7135 C0.024208112,4.4795 -0.998009861,9.8685 6.06354187,16.9245 C11.4010693,22.257 15.4644482,23 17.7033305,23 C18.4266309,23 18.9594839,22.9225 19.2833945,22.8975 C20.4260793,22.752 21.8096975,20.844 22.7494383,19.539 C23.1663233,18.9605 23.0518548,18.1575 22.4890101,17.7195 L22.4890101,17.7195 Z M18.9399893,20.9205 C18.8985007,20.925 18.8545129,20.9295 18.8090254,20.9335 C18.5151065,20.9635 18.1502072,21.0005 17.7033305,21.0005 C14.6086843,21.0005 11.07216,19.1015 7.47765173,15.51 C3.59822205,11.6335 1.67375301,7.577 2.05664737,4.0885 C2.05714723,4.0855 2.05764709,4.083 2.05764709,4.08 C2.27608682,3.617 3.35079032,2.792 4.0880869,2.253 L6.8028379,5.7405 L6.00055925,7.4585 C5.53968641,8.4455 5.66915069,9.591 6.33896589,10.448 C6.81233528,11.055 7.82255657,12.288 9.26415883,13.728 C10.706261,15.169 11.9399206,16.1775 12.5457534,16.6505 C13.0491146,17.043 13.6779411,17.259 14.3157651,17.259 C14.7341497,17.259 15.1560333,17.1655 15.5354286,16.9885 L17.2559539,16.1865 L20.7439916,18.8975 C20.2111386,19.616 19.3963634,20.6615 18.9399893,20.9205 L18.9399893,20.9205 Z" id="Icon"></path>
                    </g>
                </g>
            </g>
        </g>
    </g>
</svg>