<?xml version="1.0" encoding="UTF-8" standalone="no"?>
<svg width="30px" height="30px" viewBox="0 0 30 30" version="1.1" xmlns="http://www.w3.org/2000/svg" xmlns:xlink="http://www.w3.org/1999/xlink">
    <!-- Generator: Sketch 41.1 (35376) - http://www.bohemiancoding.com/sketch -->
    <title>Dribbble</title>
    <desc>Created with Sketch.</desc>
    <defs></defs>
    <g id="Contact" stroke="none" stroke-width="1" fill="none" fill-rule="evenodd">
        <g id="1440" transform="translate(-815.000000, -478.000000)" fill="#1DE092">
            <g id="Networks" transform="translate(464.000000, 428.000000)">
                <g id="Icons" transform="translate(133.000000, 50.000000)">
                    <path d="M232.939583,0.000125248023 C224.668597,0.0327576306 217.966611,6.78325104 218.000125,15.0471814 C218.033639,23.3111118 224.790307,30.0078059 233.061293,29.9751735 C241.332279,29.9416592 248.034264,23.1911658 247.999868,14.9272354 C247.965472,6.66330498 241.210569,-0.0333890908 232.939583,0.000125248023 L232.939583,0.000125248023 Z M242.885404,6.87232862 C244.678421,9.04282304 245.770283,11.8139297 245.810853,14.83463 C245.388396,14.7464343 241.148832,13.905048 236.887219,14.4580346 C236.796378,14.2393095 236.703772,14.0197024 236.609403,13.7983313 C236.340406,13.1756702 236.052006,12.5565369 235.751259,11.9471051 C240.480309,9.99709974 242.616407,7.23834048 242.885404,6.87232862 L242.885404,6.87232862 Z M232.948402,2.20589792 C236.202821,2.19178662 239.183833,3.40006673 241.454871,5.39681576 C241.225562,5.72578545 239.307307,8.32402867 234.758177,10.0482532 C232.643245,6.2029238 230.303415,3.0455203 229.947105,2.57279173 C230.910201,2.3373094 231.914749,2.20942574 232.948402,2.20589792 L232.948402,2.20589792 Z M227.506732,3.44328259 C227.846285,3.90454572 230.148191,7.06547705 232.286935,10.8279026 C226.300216,12.4418826 221.021707,12.4401187 220.448436,12.4348269 C221.262481,8.45984994 223.928635,5.14722213 227.506732,3.44328259 L227.506732,3.44328259 Z M220.188259,15.0577649 C220.188259,14.9272354 220.190023,14.7967058 220.19355,14.6670583 C220.754475,14.6767598 226.963447,14.7314411 233.354102,12.7929012 C233.723642,13.5090497 234.076424,14.2348997 234.401866,14.9607497 C234.233413,15.0101393 234.064077,15.0604108 233.898269,15.1150921 C227.299472,17.275885 223.806925,23.1073799 223.517644,23.6048033 C221.460922,21.3434674 220.201488,18.3465799 220.188259,15.0577649 L220.188259,15.0577649 Z M233.053355,27.8082069 C230.091746,27.8205543 227.356799,26.8212978 225.177485,25.1376433 C225.405912,24.6657967 227.980342,19.6483474 235.195627,17.1030215 C235.223849,17.09332 235.252072,17.0845004 235.280295,17.0747989 C237.098889,21.7377018 237.858253,25.6500599 238.054047,26.7719083 C236.517679,27.4316116 234.827851,27.8011513 233.053355,27.8082069 L233.053355,27.8082069 Z M240.202493,25.5900869 C240.068435,24.8113195 239.370808,21.067415 237.67657,16.4724228 C241.689471,15.8144834 245.220824,16.851664 245.660038,16.9883672 C245.102642,20.5532345 243.068851,23.6374356 240.202493,25.5900869 L240.202493,25.5900869 Z" id="Dribbble"></path>
                </g>
            </g>
        </g>
    </g>
</svg>