<?xml version="1.0" encoding="UTF-8" standalone="no"?>
<svg width="260px" height="260px" viewBox="0 0 260 260" version="1.1" xmlns="http://www.w3.org/2000/svg" xmlns:xlink="http://www.w3.org/1999/xlink" style="background: #0A3FA8;">
    <!-- Generator: Sketch 41.1 (35376) - http://www.bohemiancoding.com/sketch -->
    <title>Favicon</title>
    <desc>Created with Sketch.</desc>
    <defs></defs>
    <g id="Favicon" stroke="none" stroke-width="1" fill="none" fill-rule="evenodd">
        <g id="Image-logo" fill="#FFFFFF">
            <g transform="translate(33.000000, 82.000000)">
                <path d="M192.693325,77.4135138 L163.260813,47.9991138 L192.681502,18.5965292 C195.027562,16.2511754 195.027562,12.4495754 192.681502,10.10496 L184.350961,1.78028308 C182.004901,-0.565070769 178.200961,-0.565070769 175.854901,1.78028308 L146.434212,31.1828677 L116.992094,1.75886769 C114.645296,-0.586486154 110.841355,-0.586486154 108.495296,1.75886769 L100.165493,10.0835446 C97.8186946,12.42816 97.8186946,16.22976 100.165493,18.5751138 L129.607611,47.9991138 L100.163276,77.4253292 C97.8172167,79.7699446 97.8172167,83.5715446 100.163276,85.91616 L108.493818,94.2415754 C110.839877,96.5861908 114.643818,96.5861908 116.989877,94.2415754 L146.434212,64.81536 L175.866724,94.22976 C178.212783,96.5743754 182.016724,96.5743754 184.362783,94.22976 L192.693325,85.9043446 C195.039384,83.5597292 195.039384,79.7581292 192.693325,77.4135138" id="Fill-1"></path>
                <path d="M60.5973399,77.4133662 L31.1648276,47.9989662 L60.5855172,18.5963815 C62.9315764,16.2510277 62.9315764,12.4494277 60.5855172,10.1048123 L52.2549754,1.78013538 C49.9089163,-0.56448 46.1049754,-0.565218462 43.7589163,1.78013538 C38.0892118,7.44635077 28.0414286,17.4879508 21.8175369,23.7080123 L14.3382266,31.18272 L1.75965517,43.7535508 C-0.586403941,46.0981662 -0.586403941,49.8997662 1.75965517,52.2443815 L14.3382266,64.8152123 L43.7707389,94.2296123 C46.116798,96.5742277 49.9207389,96.5742277 52.266798,94.2296123 L60.5973399,85.9041969 C62.943399,83.5595815 62.943399,79.7579815 60.5973399,77.4133662" id="Fill-4"></path>
            </g>
        </g>
    </g>
</svg>