<?xml version="1.0" encoding="UTF-8" standalone="no"?>
<svg width="30px" height="30px" viewBox="0 0 30 30" version="1.1" xmlns="http://www.w3.org/2000/svg" xmlns:xlink="http://www.w3.org/1999/xlink">
    <!-- Generator: Sketch 41.1 (35376) - http://www.bohemiancoding.com/sketch -->
    <title>Github</title>
    <desc>Created with Sketch.</desc>
    <defs></defs>
    <g id="Contact" stroke="none" stroke-width="1" fill="none" fill-rule="evenodd">
        <g id="1440" transform="translate(-740.000000, -478.000000)" fill="#1DE092">
            <g id="Networks" transform="translate(464.000000, 428.000000)">
                <g id="Icons" transform="translate(133.000000, 50.000000)">
                    <path d="M161.975289,29.4507528 C161.864239,29.306688 161.801211,29.1326097 161.801211,28.9615327 C161.801211,28.4565554 161.819969,26.7945576 161.819969,24.7341304 C161.819969,23.2972338 161.329248,22.3563103 160.779251,21.8805963 C164.194788,21.4986744 167.779151,20.1968386 167.779151,14.2766745 C167.779151,12.5951678 167.185634,11.2190486 166.203442,10.1415637 C166.361012,9.75138812 166.886999,8.18543345 166.050373,6.06347857 C166.050373,6.06347857 164.765795,5.64854184 161.838727,7.64293932 C160.614176,7.30078535 159.302586,7.12970837 158.00075,7.12445601 C156.696663,7.13045871 155.385073,7.30078535 154.162773,7.64293932 C151.234205,5.64854184 149.946626,6.06347857 149.946626,6.06347857 C149.113001,8.18468311 149.638988,9.75138812 149.796558,10.1415637 C148.815867,11.2190486 148.218598,12.5951678 148.218598,14.2766745 C148.218598,20.1818318 151.797709,21.5039268 155.201991,21.8918513 C154.763794,22.2775249 154.367615,22.9565805 154.228803,23.9522785 C153.35466,24.3462058 151.13441,25.026762 149.766545,22.6714522 C149.766545,22.6714522 148.956931,21.1925366 147.418738,21.0837377 C147.418738,21.0837377 145.921064,21.0649792 147.312941,22.0209094 C147.312941,22.0209094 148.318393,22.4943725 149.015457,24.2749237 C149.015457,24.2749237 149.915112,27.2717723 154.180031,26.3398529 C154.187534,27.626682 154.20029,28.5953679 154.20029,28.9607824 C154.20029,29.1318593 154.136511,29.3059377 154.023961,29.4500025 C147.672353,27.7062178 143,21.9053574 143,15 C143,6.71552198 149.715522,0 158,0 C166.284478,0 173,6.71552198 173,15 C173,21.9061077 168.327647,27.7069681 161.975289,29.4507528 L161.975289,29.4507528 Z" id="Github"></path>
                </g>
            </g>
        </g>
    </g>
</svg>