<?xml version="1.0" encoding="UTF-8" standalone="no"?>
<svg width="41px" height="20px" viewBox="0 0 41 20" version="1.1" xmlns="http://www.w3.org/2000/svg" xmlns:xlink="http://www.w3.org/1999/xlink">
    <!-- Generator: Sketch 41.1 (35376) - http://www.bohemiancoding.com/sketch -->
    <title>Logo-notxt</title>
    <desc>Created with Sketch.</desc>
    <defs>
        <polygon id="path-1" points="20.0245462 0 0.0266230769 0 0.0266230769 20.0000077 20.0245462 20.0000077"></polygon>
    </defs>
    <g id="Home" stroke="none" stroke-width="1" fill="none" fill-rule="evenodd">
        <g id="320" transform="translate(-140.000000, -20.000000)">
            <g id="Viewport-1">
                <g id="Navigation-header">
                    <g id="Logo-notxt" transform="translate(140.000000, 20.000000)">
                        <g id="Group-3" transform="translate(20.461538, 0.000000)">
                            <mask id="mask-2" fill="white">
                                <use xlink:href="#path-1"></use>
                            </mask>
                            <g id="Clip-2"></g>
                            <path d="M19.6582,16.1278154 L13.5302,9.99981538 L19.6557385,3.87427692 C20.1442,3.38566154 20.1442,2.59366154 19.6557385,2.1052 L17.9212769,0.370892308 C17.4328154,-0.117723077 16.6408154,-0.117723077 16.1523538,0.370892308 L10.0268154,6.49643077 L3.89681538,0.366430769 C3.4082,-0.122184615 2.6162,-0.122184615 2.12773846,0.366430769 L0.393430769,2.10073846 C-0.0951846154,2.5892 -0.0951846154,3.3812 0.393430769,3.86981538 L6.52343077,9.99981538 L0.392969231,16.1302769 C-0.0954923077,16.6187385 -0.0954923077,17.4107385 0.392969231,17.8992 L2.12743077,19.6336615 C2.61589231,20.1221231 3.40789231,20.1221231 3.89635385,19.6336615 L10.0268154,13.5032 L16.1548154,19.6312 C16.6432769,20.1196615 17.4352769,20.1196615 17.9237385,19.6312 L19.6582,17.8967385 C20.1466615,17.4082769 20.1466615,16.6162769 19.6582,16.1278154" id="Fill-1" fill="#FFFFFF" mask="url(#mask-2)"></path>
                        </g>
                        <path d="M12.6166769,16.1277846 L6.48867692,9.99978462 L12.6142154,3.87424615 C13.1026769,3.38563077 13.1026769,2.59363077 12.6142154,2.10516923 L10.8797538,0.370861538 C10.3912923,-0.1176 9.59929231,-0.117753846 9.11083077,0.370861538 C7.93036923,1.55132308 5.83836923,3.64332308 4.54252308,4.93916923 L2.98529231,6.4964 L0.366369231,9.11532308 C-0.122092308,9.60378462 -0.122092308,10.3957846 0.366369231,10.8842462 L2.98529231,13.5031692 L9.11329231,19.6311692 C9.60175385,20.1196308 10.3937538,20.1196308 10.8822154,19.6311692 L12.6166769,17.8967077 C13.1051385,17.4082462 13.1051385,16.6162462 12.6166769,16.1277846" id="Fill-4" fill="#FFFFFF"></path>
                    </g>
                </g>
            </g>
        </g>
    </g>
</svg>