<?xml version="1.0" encoding="UTF-8" standalone="no"?>
<svg width="185px" height="20px" viewBox="0 0 185 20" version="1.1" xmlns="http://www.w3.org/2000/svg" xmlns:xlink="http://www.w3.org/1999/xlink">
    <!-- Generator: Sketch 41.1 (35376) - http://www.bohemiancoding.com/sketch -->
    <title>Logo</title>
    <desc>Created with Sketch.</desc>
    <defs>
        <polygon id="path-1" points="12.3211132 0 -3.63204153e-05 0 -3.63204153e-05 19.9999692 12.3211132 19.9999692 12.3211132 0"></polygon>
        <polygon id="path-3" points="12.3165169 0 0.00886153846 0 0.00886153846 19.9999538 12.3165169 19.9999538 12.3165169 8.74514136e-15"></polygon>
        <polygon id="path-5" points="12.3164308 8.19857003e-16 0.0133538462 8.19857003e-16 0.0133538462 19.9999385 12.3164308 19.9999385 12.3164308 -3.55271368e-15"></polygon>
        <polygon id="path-7" points="12.3275594 0 0.00641586162 0 0.00641586162 19.9999538 12.3275594 19.9999538 12.3275594 8.74514136e-15"></polygon>
        <polygon id="path-9" points="0.0221230769 11.6923077 12.3252 11.6923077 12.3252 0.149553846 0.0221230769 0.149553846 0.0221230769 11.6923077"></polygon>
    </defs>
    <g id="Home" stroke="none" stroke-width="1" fill="none" fill-rule="evenodd">
        <g id="1024" transform="translate(-420.000000, -20.000000)">
            <g id="Viewport-1">
                <g id="Navigation-header" transform="translate(128.000000, 0.000000)">
                    <g id="Logo" transform="translate(292.000000, 20.000000)">
                        <g id="Group-3" transform="translate(21.538462, 0.000000)">
                            <mask id="mask-2" fill="white">
                                <use xlink:href="#path-1"></use>
                            </mask>
                            <g id="Clip-2"></g>
                            <path d="M6.16053846,13.8461231 L4.52869231,13.8461231 L6.16053846,7.0092 L7.79238462,13.8461231 L6.16053846,13.8461231 Z M12.3003846,19.0578154 L7.89407692,0.596276923 C7.81069231,0.2472 7.48930769,-3.07692308e-05 7.11884615,-3.07692308e-05 L6.16053846,-3.07692308e-05 L5.20223077,-3.07692308e-05 C4.83176923,-3.07692308e-05 4.51038462,0.2472 4.427,0.596276923 L0.0206923077,19.0578154 C-0.0943846154,19.5398154 0.284230769,19.9999692 0.795923077,19.9999692 L2.34530769,19.9999692 C2.71576923,19.9999692 3.03715385,19.7527385 3.12053846,19.4036615 L3.71253846,16.9230462 L6.16053846,16.9230462 L8.60853846,16.9230462 L9.20053846,19.4036615 C9.28392308,19.7527385 9.60530769,19.9999692 9.97576923,19.9999692 L11.5251538,19.9999692 C12.0368462,19.9999692 12.4154615,19.5398154 12.3003846,19.0578154 L12.3003846,19.0578154 Z" id="Fill-1" fill="#FFFFFF" mask="url(#mask-2)"></path>
                        </g>
                        <path d="M5.76923077,8.46153846 L3.07692308,8.46153846 L3.07692308,3.07692308 L6.53846154,3.07692308 L6.53846154,3.07692308 C8.02292308,3.07692308 9.23076923,4.28476923 9.23076923,5.76923077 C9.23076923,7.25369231 8.02292308,8.46153846 6.53846154,8.46153846 L5.76923077,8.46153846 Z M6.53846154,11.5384615 C8.02292308,11.5384615 9.23076923,12.7463077 9.23076923,14.2307692 C9.23076923,15.7152308 8.02292308,16.9230769 6.53846154,16.9230769 L3.07692308,16.9230769 L3.07692308,11.5384615 L5.76923077,11.5384615 L6.53846154,11.5384615 L6.53846154,11.5384615 Z M12.3076923,5.76923077 L12.3076923,5.76923077 C12.3076923,2.58292308 9.72476923,0 6.53846154,0 L3.07692308,0 L2.07723077,0 L0.769230769,0 C0.344461538,0 0,0.344307692 0,0.769230769 L0,19.2307692 C0,19.6555385 0.344461538,20 0.769230769,20 L1.75030769,20 L1.75030769,20 L6.53846154,20 C9.72461538,20 12.3076923,17.4170769 12.3076923,14.2307692 C12.3076923,12.5587692 11.5956923,11.0536923 10.4592308,10 C11.5956923,8.94630769 12.3076923,7.44123077 12.3076923,5.76923077 L12.3076923,5.76923077 Z" id="Fill-4" fill="#FFFFFF"></path>
                        <g id="Group-8" transform="translate(64.615385, 0.000000)">
                            <mask id="mask-4" fill="white">
                                <use xlink:href="#path-3"></use>
                            </mask>
                            <g id="Clip-7"></g>
                            <path d="M7.21655385,9.99995385 L12.2287077,1.12410769 C12.4950154,0.612107692 12.1234769,-4.61538462e-05 11.5462462,-4.61538462e-05 L9.81116923,-4.61538462e-05 C9.52424615,-4.61538462e-05 9.26116923,0.159646154 9.12870769,0.414107692 L4.62886154,8.46149231 L3.08578462,8.46149231 L3.08578462,3.63856923 L3.08578462,3.48456923 L3.08578462,3.07687692 L3.08578462,0.769184615 C3.08578462,0.344415385 2.74132308,-4.61538462e-05 2.31655385,-4.61538462e-05 L0.778092308,-4.61538462e-05 C0.353169231,-4.61538462e-05 0.00886153846,0.344415385 0.00886153846,0.769184615 L0.00886153846,19.2307231 C0.00886153846,19.6556462 0.353169231,19.9999538 0.778092308,19.9999538 L2.31655385,19.9999538 C2.74132308,19.9999538 3.08578462,19.6556462 3.08578462,19.2307231 L3.08578462,11.5384154 L3.08578462,11.5070308 L4.63393846,11.5070308 L9.12870769,19.5858 C9.26116923,19.8402615 9.52424615,19.9999538 9.81116923,19.9999538 L11.5462462,19.9999538 C12.1234769,19.9999538 12.4950154,19.3878 12.2287077,18.8758 L7.21655385,9.99995385 Z" id="Fill-6" fill="#FFFFFF" mask="url(#mask-4)"></path>
                        </g>
                        <g id="Group-11" transform="translate(43.076923, 0.000000)">
                            <mask id="mask-6" fill="white">
                                <use xlink:href="#path-5"></use>
                            </mask>
                            <g id="Clip-10"></g>
                            <path d="M12.3158154,14.4053231 C12.3158154,14.0964 12.0655077,13.8460923 11.7565846,13.8460923 L9.79812308,13.8460923 C9.48935385,13.8460923 9.23889231,14.0964 9.23889231,14.4053231 L9.23889231,14.4110154 L9.23504615,14.4110154 C9.14166154,15.8113231 7.97550769,16.9230154 6.55181538,16.9230154 L5.78258462,16.9230154 C4.29812308,16.9230154 3.09027692,15.7153231 3.09027692,14.2307077 L3.09027692,5.76916923 C3.09027692,4.28470769 4.29812308,3.07686154 5.78258462,3.07686154 L6.55181538,3.07686154 C7.97550769,3.07686154 9.14166154,4.18855385 9.23504615,5.58901538 L9.23889231,5.58901538 L9.23889231,5.59455385 C9.23889231,5.90347692 9.48935385,6.15378462 9.79812308,6.15378462 L11.7565846,6.15378462 C12.0655077,6.15378462 12.3158154,5.90347692 12.3158154,5.59455385 L12.3158154,5.58901538 L12.3164308,5.58901538 C12.2210462,2.48624615 9.67766154,-6.15384615e-05 6.55181538,-6.15384615e-05 L5.78258462,-6.15384615e-05 C2.59643077,-6.15384615e-05 0.0133538462,2.58301538 0.0133538462,5.76916923 L0.0133538462,14.2307077 C0.0133538462,17.4170154 2.59643077,19.9999385 5.78258462,19.9999385 L6.55181538,19.9999385 C9.67766154,19.9999385 12.2210462,17.5136308 12.3164308,14.4110154 L12.3158154,14.4110154 L12.3158154,14.4053231 Z" id="Fill-9" fill="#FFFFFF" mask="url(#mask-6)"></path>
                        </g>
                        <path d="M172.325231,19.2307692 C172.325231,19.6555385 172.669692,20 173.094462,20 L175.402154,20 L183.863692,20 C184.288462,20 184.632923,19.6555385 184.632923,19.2307692 L184.632923,17.6923077 C184.632923,17.2675385 184.288462,16.9230769 183.863692,16.9230769 L178.479077,16.9230769 L175.402154,16.9230769 L173.094462,16.9230769 C172.669692,16.9230769 172.325231,17.2675385 172.325231,17.6923077 L172.325231,19.2307692 Z" id="Fill-12" fill="#FFFFFF"></path>
                        <path d="M183.863692,0 L175.402154,0 L173.094462,0 C172.669692,0 172.325231,0.344461538 172.325231,0.769230769 L172.325231,2.30769231 C172.325231,2.73246154 172.669692,3.07692308 173.094462,3.07692308 L175.402154,3.07692308 L179.174308,3.07692308 L183.863692,3.07692308 C184.288462,3.07692308 184.632923,2.73246154 184.632923,2.30769231 L184.632923,0.769230769 C184.632923,0.344461538 184.288462,0 183.863692,0" id="Fill-14" fill="#FFFFFF"></path>
                        <g id="Group-18" transform="translate(129.230769, 0.000000)">
                            <mask id="mask-8" fill="white">
                                <use xlink:href="#path-7"></use>
                            </mask>
                            <g id="Clip-17"></g>
                            <path d="M12.3068308,19.0578 L11.7972923,16.9230308 L11.2039077,14.4368769 C11.1212923,14.0904154 10.8117538,13.8461077 10.4557538,13.8461077 L7.79883077,13.8461077 L6.16698462,13.8461077 L4.53513846,13.8461077 L5.78621538,8.60487692 L6.74129231,4.60333846 L6.74129231,4.60333846 L7.61375385,0.9478 C7.72913846,0.464261538 7.36252308,-4.61538462e-05 6.86544615,-4.61538462e-05 L5.20867692,-4.61538462e-05 C4.83821538,-4.61538462e-05 4.51683077,0.247184615 4.4336,0.596261538 L0.0271384615,19.0578 C-0.0879384615,19.5398 0.290830769,19.9999538 0.802369231,19.9999538 L2.35175385,19.9999538 C2.72221538,19.9999538 3.0436,19.7527231 3.12698462,19.4038 L3.80083077,16.9230308 L6.16698462,16.9230308 L8.61498462,16.9230308 L9.20698462,19.4038 C9.29036923,19.7527231 9.61175385,19.9999538 9.98221538,19.9999538 L11.5316,19.9999538 C12.0432923,19.9999538 12.4219077,19.5398 12.3068308,19.0578" id="Fill-16" fill="#FFFFFF" mask="url(#mask-8)"></path>
                        </g>
                        <path id="Fill-19" fill="#FFFFFF"></path>
                        <polygon id="Fill-21" fill="#FFFFFF" points="92.3164308 2.19590769 92.3164308 0.6456 92.3164308 0.645446154 92.3164308 2.19606154"></polygon>
                        <path id="Fill-23" fill="#FFFFFF"></path>
                        <path d="M92.7010769,8.4554 L92.7010769,8.4554 L92.7010769,8.4554 L92.7010769,8.4554 L91.9318462,8.4554 L91.9318462,8.4554 C90.4624615,8.4554 89.2643077,7.27232308 89.2398462,5.80863077 C89.218,4.49201538 90.1958462,3.38463077 91.4487692,3.12724615 C91.4510769,3.12678462 91.4533846,3.12632308 91.4556923,3.12586154 L91.5472308,3.10878462 C91.972,3.0294 92.3163077,2.62078462 92.3164615,2.19601538 L92.3164615,0.6454 C92.3163077,0.267246154 92.0427692,0.00555384615 91.6830769,0.00832307692 C91.6830769,0.00755384615 91.6833846,0.00678461538 91.6833846,0.00616923077 C91.6670769,0.00709230769 91.6509231,0.00909230769 91.6346154,0.0103230769 C91.6507692,0.0094 91.6669231,0.00847692308 91.6829231,0.00832307692 C91.6386154,0.00878461538 91.5936923,0.0114 91.5472308,0.0200153846 C91.564,0.0169384615 91.5804615,0.0152461538 91.5969231,0.0135538462 C88.5646154,0.244938462 86.1047692,2.79216923 86.1636923,5.87555385 C86.2235385,9.00986154 88.7830769,11.5323231 91.9318462,11.5323231 L92.7010769,11.5323231 L92.7010769,11.5323231 C94.4646154,11.5323231 95.8376923,13.2369385 95.2590769,15.0850923 C94.9135385,16.1890923 93.858,16.9169385 92.7010769,16.9169385 L92.7010769,16.9169385 L92.7010769,16.9169385 L91.9295385,16.9167846 C90.5058462,16.9167846 89.3398462,15.8052462 89.2463077,14.4047846 L89.2424615,14.4047846 L89.2424615,14.3990923 C89.2424615,14.0903231 88.9921538,13.8400154 88.6832308,13.8400154 L86.7247692,13.8400154 C86.4158462,13.8400154 86.1655385,14.0903231 86.1655385,14.3990923 L86.1655385,14.4047846 L86.1649231,14.4047846 C86.2603077,17.5074 88.8036923,19.9937077 91.9295385,19.9937077 L92.5870769,19.9938615 C95.822,19.9938615 98.5310769,17.3464769 98.4692308,14.1121692 C98.4092308,10.9778615 95.8496923,8.4554 92.7010769,8.4554" id="Fill-25" fill="#FFFFFF"></path>
                        <g id="Group-29" transform="translate(150.769231, 8.307692)">
                            <mask id="mask-10" fill="white">
                                <use xlink:href="#path-9"></use>
                            </mask>
                            <g id="Clip-28"></g>
                            <path d="M0.0221230769,0.918784615 L0.0221230769,5.92309231 C0.0221230769,9.1094 2.60504615,11.6923231 5.79135385,11.6923231 L6.56058462,11.6923231 C9.68643077,11.6923231 12.2298154,9.20601538 12.3252,6.10324615 L12.3245846,6.10324615 L12.3245846,6.09770769 C12.3245846,5.78878462 12.0742769,5.53847692 11.7653538,5.53847692 L9.80689231,5.53847692 C9.49796923,5.53847692 9.24766154,5.78878462 9.24766154,6.09770769 L9.24766154,6.10324615 L9.24381538,6.10324615 C9.15027692,7.50370769 7.98427692,8.6154 6.56058462,8.6154 L5.79135385,8.6154 C4.30443077,8.6154 3.09904615,7.41001538 3.09904615,5.92309231 L3.09904615,0.918784615 C3.09904615,0.494015385 2.75458462,0.149553846 2.32981538,0.149553846 L0.791353846,0.149553846 C0.366584615,0.149553846 0.0221230769,0.494015385 0.0221230769,0.918784615" id="Fill-27" fill="#FFFFFF" mask="url(#mask-10)"></path>
                        </g>
                        <path d="M114.241754,8.46163077 L114.241754,8.46163077 L110.780215,8.46163077 L110.780215,3.07701538 L114.241754,3.07701538 C115.726215,3.07701538 116.934062,4.28486154 116.934062,5.76932308 C116.934062,7.25378462 115.726215,8.46163077 114.241754,8.46163077 M114.127754,9.23076923e-05 L110.780215,9.23076923e-05 L108.472523,9.23076923e-05 C108.047754,9.23076923e-05 107.703292,0.3444 107.703292,0.769323077 L107.703292,8.46163077 L107.703292,11.5385538 L107.703292,13.0768615 C107.703292,13.5017846 108.047754,13.8460923 108.472523,13.8460923 L110.010985,13.8460923 C110.435754,13.8460923 110.780215,13.5017846 110.780215,13.0768615 L110.780215,11.5385538 L113.013446,11.5385538 L114.241754,11.5385538 C117.390523,11.5385538 119.950062,9.01609231 120.009908,5.88163077 C120.071754,2.64732308 117.362677,9.23076923e-05 114.127754,9.23076923e-05" id="Fill-30" fill="#FFFFFF"></path>
                        <path d="M157.497738,0.00415384615 C157.4322,0.0104615385 157.316508,0.0403076923 157.177277,0.160153846 C157.017277,0.297692308 156.988662,0.491230769 156.984662,0.583846154 L156.984662,0.637846154 L156.984662,2.20907692 C156.984662,2.20907692 156.976969,2.51184615 157.234815,2.79676923 C157.492662,3.08184615 157.812354,3.10769231 158.050046,3.17492308 C158.050046,3.17492308 158.049431,3.17615385 158.049277,3.17661538 C159.128354,3.47707692 159.935892,4.43384615 160.012969,5.58892308 L160.016969,5.58892308 L160.016969,5.59461538 C160.016969,5.90338462 160.267277,6.15384615 160.576046,6.15384615 L162.534662,6.15384615 C162.843431,6.15384615 163.093738,5.90338462 163.093738,5.59461538 L163.093738,5.58892308 L163.094508,5.58892308 C163.000815,2.54230769 160.546046,0.0915384615 157.497738,0.00415384615" id="Fill-32" fill="#FFFFFF"></path>
                    </g>
                </g>
            </g>
        </g>
    </g>
</svg>