<?xml version="1.0" encoding="UTF-8" standalone="no"?>
<svg width="29px" height="24px" viewBox="0 0 29 24" version="1.1" xmlns="http://www.w3.org/2000/svg" xmlns:xlink="http://www.w3.org/1999/xlink">
    <!-- Generator: Sketch 41.1 (35376) - http://www.bohemiancoding.com/sketch -->
    <title>Twitter</title>
    <desc>Created with Sketch.</desc>
    <defs></defs>
    <g id="Contact" stroke="none" stroke-width="1" fill="none" fill-rule="evenodd">
        <g id="1440" transform="translate(-597.000000, -481.000000)" fill="#1DE092">
            <g id="Networks" transform="translate(464.000000, 428.000000)">
                <g id="Icons" transform="translate(133.000000, 50.000000)">
                    <path d="M28.2066413,3.44408882 C27.0640128,4.13782757 25.7989598,4.64312863 24.4510902,4.91438288 C23.3720744,3.73694739 21.8345669,3 20.135027,3 C16.8679736,3 14.220244,5.71374275 14.220244,9.060012 C14.220244,9.53530706 14.2718544,9.99619924 14.3726745,10.4402881 C9.45769154,10.1870374 5.09961992,7.77455491 2.18303661,4.11022204 C1.67413483,5.00440088 1.3824765,6.045009 1.3824765,7.15643129 C1.3824765,9.25805161 2.36187237,11.1124225 3.94858972,12.1986397 C2.97879576,12.1674335 2.23464693,11.8937788 1.20484097,11.4412883 L1.20484097,11.5157031 C1.20484097,14.4514903 3.30766153,16.89998 6.01180236,17.4580916 C5.51610322,17.594919 5.02520504,17.6705341 4.48629726,17.6705341 C4.10582116,17.6705341 3.75055011,17.6309262 3.38927786,17.560112 C4.14182837,19.9677936 6.33466693,21.720144 8.92238448,21.7693539 C6.89757952,23.3944789 4.35187037,24.3630726 1.58171634,24.3630726 C1.1040208,24.3630726 0.634726945,24.3342669 0.172634527,24.2778556 C2.78915783,25.9965993 5.8989798,27 9.23924785,27 C20.1170234,27 26.0654131,17.7689538 26.0654131,9.76215243 C26.0654131,9.49929986 26.0618124,9.23764753 26.04981,8.97839568 C27.2056411,8.12502501 28.2066413,7.05681136 29,5.84216843 C27.9389878,6.32466493 26.79996,6.64992999 25.6021204,6.79635927 C26.8275655,6.04620924 27.764953,4.85917183 28.2066413,3.44408882 L28.2066413,3.44408882 Z" id="Twitter"></path>
                </g>
            </g>
        </g>
    </g>
</svg>